<svg width="319" height="290" viewBox="0 0 319 290" fill="none" xmlns="http://www.w3.org/2000/svg">
<path d="M240 0V160H80V0H240ZM110 130H210V30H110V130Z" fill="#136207"/>
<path d="M240 130V290H80V130H240ZM110 260H210V160H110V260Z" fill="#136207"/>
<path d="M239 130C260.217 130 280.566 138.428 295.569 153.431C310.572 168.434 319 188.782 319 210C319 231.217 310.572 251.565 295.569 266.568C280.566 281.571 260.217 290 239 290V261.137C252.563 261.137 265.57 255.749 275.16 246.159C284.75 236.569 290.138 223.562 290.138 210C290.138 196.437 284.75 183.43 275.16 173.84C265.57 164.25 252.563 158.862 239 158.862V130Z" fill="#136207"/>
<path d="M80 0C58.7827 9.27438e-07 38.4344 8.42855 23.4315 23.4315C8.42855 38.4344 -5.90226e-07 58.7827 0 80C5.90226e-07 101.217 8.42855 121.566 23.4315 136.569C38.4344 151.571 58.7827 160 80 160L80 131.137C66.4375 131.137 53.4305 125.75 43.8403 116.16C34.2502 106.57 28.8625 93.5625 28.8625 80C28.8625 66.4375 34.2502 53.4305 43.8403 43.8403C53.4305 34.2502 66.4375 28.8625 80 28.8625V0Z" fill="#136207"/>
</svg>
